<mxfile host="Electron" modified="2024-04-01T12:34:07.389Z" agent="Mozilla/5.0 (Windows NT 10.0; Win64; x64) AppleWebKit/537.36 (KHTML, like Gecko) draw.io/22.1.2 Chrome/114.0.5735.289 Electron/25.9.4 Safari/537.36" etag="Vr15myRGshW4pf-Hqv3u" version="22.1.2" type="device">
  <diagram name="第 1 页" id="9-pB5DFrk009jq3HI5Pv">
    <mxGraphModel dx="1098" dy="828" grid="1" gridSize="10" guides="1" tooltips="1" connect="1" arrows="1" fold="1" page="1" pageScale="1" pageWidth="827" pageHeight="1169" math="0" shadow="0">
      <root>
        <mxCell id="0" />
        <mxCell id="1" parent="0" />
        <mxCell id="4LdpUs9h3QzE5ZVWaWeH-1" value="用户&lt;br&gt;" style="shape=umlActor;verticalLabelPosition=bottom;verticalAlign=top;html=1;outlineConnect=0;" vertex="1" parent="1">
          <mxGeometry x="400" y="400" width="30" height="60" as="geometry" />
        </mxCell>
        <mxCell id="4LdpUs9h3QzE5ZVWaWeH-8" value="" style="endArrow=none;dashed=1;html=1;rounded=0;exitX=1;exitY=0.3333333333333333;exitDx=0;exitDy=0;exitPerimeter=0;" edge="1" parent="1" source="4LdpUs9h3QzE5ZVWaWeH-1" target="4LdpUs9h3QzE5ZVWaWeH-13">
          <mxGeometry width="50" height="50" relative="1" as="geometry">
            <mxPoint x="390" y="450" as="sourcePoint" />
            <mxPoint x="540" y="330" as="targetPoint" />
          </mxGeometry>
        </mxCell>
        <mxCell id="4LdpUs9h3QzE5ZVWaWeH-9" value="" style="endArrow=none;dashed=1;html=1;rounded=0;entryX=0.425;entryY=-0.02;entryDx=0;entryDy=0;entryPerimeter=0;" edge="1" parent="1" source="4LdpUs9h3QzE5ZVWaWeH-1" target="4LdpUs9h3QzE5ZVWaWeH-14">
          <mxGeometry width="50" height="50" relative="1" as="geometry">
            <mxPoint x="460" y="510" as="sourcePoint" />
            <mxPoint x="540" y="520" as="targetPoint" />
          </mxGeometry>
        </mxCell>
        <mxCell id="4LdpUs9h3QzE5ZVWaWeH-10" value="" style="endArrow=none;dashed=1;html=1;rounded=0;exitX=0;exitY=0.3333333333333333;exitDx=0;exitDy=0;exitPerimeter=0;" edge="1" parent="1" source="4LdpUs9h3QzE5ZVWaWeH-1">
          <mxGeometry width="50" height="50" relative="1" as="geometry">
            <mxPoint x="304" y="410" as="sourcePoint" />
            <mxPoint x="320" y="320" as="targetPoint" />
          </mxGeometry>
        </mxCell>
        <mxCell id="4LdpUs9h3QzE5ZVWaWeH-11" value="" style="endArrow=none;dashed=1;html=1;rounded=0;entryX=0.5;entryY=0;entryDx=0;entryDy=0;" edge="1" parent="1" source="4LdpUs9h3QzE5ZVWaWeH-1" target="4LdpUs9h3QzE5ZVWaWeH-15">
          <mxGeometry width="50" height="50" relative="1" as="geometry">
            <mxPoint x="370" y="560" as="sourcePoint" />
            <mxPoint x="290" y="530" as="targetPoint" />
          </mxGeometry>
        </mxCell>
        <mxCell id="4LdpUs9h3QzE5ZVWaWeH-12" value="关键词检索" style="ellipse;whiteSpace=wrap;html=1;" vertex="1" parent="1">
          <mxGeometry x="250" y="280" width="120" height="50" as="geometry" />
        </mxCell>
        <mxCell id="4LdpUs9h3QzE5ZVWaWeH-13" value="检索过滤" style="ellipse;whiteSpace=wrap;html=1;" vertex="1" parent="1">
          <mxGeometry x="480" y="280" width="120" height="50" as="geometry" />
        </mxCell>
        <mxCell id="4LdpUs9h3QzE5ZVWaWeH-14" value="检索历史查询" style="ellipse;whiteSpace=wrap;html=1;" vertex="1" parent="1">
          <mxGeometry x="480" y="520" width="120" height="50" as="geometry" />
        </mxCell>
        <mxCell id="4LdpUs9h3QzE5ZVWaWeH-15" value="对话检索" style="ellipse;whiteSpace=wrap;html=1;" vertex="1" parent="1">
          <mxGeometry x="250" y="520" width="120" height="50" as="geometry" />
        </mxCell>
      </root>
    </mxGraphModel>
  </diagram>
</mxfile>
